<?xml version="1.0" standalone="no"?>
<!DOCTYPE svg PUBLIC "-//W3C//DTD SVG 20010904//EN"
 "http://www.w3.org/TR/2001/REC-SVG-20010904/DTD/svg10.dtd">
<svg version="1.0" xmlns="http://www.w3.org/2000/svg"
 width="500.000000pt" height="500.000000pt" viewBox="0 0 500.000000 500.000000"
 preserveAspectRatio="xMidYMid meet">
<metadata>
Created by potrace 1.14, written by Peter Selinger 2001-2017
</metadata>
<g transform="translate(0.000000,500.000000) scale(0.100000,-0.100000)"
fill="#000000" stroke="none">
<path d="M3038 4955 c-2 -2 -29 -6 -60 -9 -31 -3 -63 -8 -70 -11 -46 -16 -154
-29 -175 -21 -22 9 -374 9 -396 0 -9 -3 -37 -4 -62 -2 -25 2 -45 -1 -45 -5 0
-5 -18 -7 -40 -5 -22 2 -41 0 -42 -4 -2 -4 -28 -8 -58 -10 -30 -2 -57 -6 -60
-9 -9 -11 -152 -39 -163 -32 -5 3 -7 1 -4 -4 8 -12 -50 -26 -66 -16 -6 4 -7 1
-2 -7 6 -10 3 -12 -13 -8 -14 4 -20 2 -15 -5 4 -6 -2 -8 -15 -5 -14 4 -20 2
-15 -5 4 -6 -2 -8 -15 -5 -14 4 -20 2 -15 -5 4 -6 -2 -8 -15 -5 -12 4 -20 2
-16 -3 5 -8 -12 -13 -43 -12 -7 1 -10 -3 -7 -8 5 -8 -13 -13 -44 -12 -7 1 -11
-2 -8 -5 9 -8 -75 -43 -87 -35 -5 3 -7 2 -4 -4 8 -13 -41 -36 -55 -27 -7 5 -8
2 -3 -6 6 -10 4 -12 -9 -7 -11 5 -15 3 -10 -5 5 -8 2 -9 -10 -5 -11 5 -15 3
-10 -5 5 -8 1 -9 -12 -4 -10 4 -15 4 -11 0 10 -10 -52 -46 -65 -38 -6 4 -8 3
-4 -4 6 -10 -30 -28 -47 -24 -5 1 -6 -2 -2 -8 6 -10 -9 -15 -30 -10 -5 1 -7
-2 -2 -6 10 -10 -74 -65 -87 -57 -6 3 -8 3 -4 -2 10 -10 -102 -96 -115 -88 -6
3 -7 1 -3 -5 8 -13 -48 -55 -59 -44 -5 4 -5 2 -2 -4 6 -11 -112 -121 -125
-116 -5 1 -7 -1 -6 -6 5 -13 -105 -131 -116 -125 -6 3 -8 3 -4 -2 11 -11 -31
-67 -44 -59 -6 4 -8 3 -5 -3 8 -13 -78 -125 -88 -115 -5 4 -5 2 -2 -4 8 -13
-47 -97 -57 -87 -4 5 -7 4 -6 -2 5 -21 0 -36 -10 -30 -6 4 -9 3 -8 -2 4 -17
-14 -53 -24 -47 -7 4 -8 2 -4 -4 8 -13 -28 -75 -38 -65 -4 4 -4 -1 0 -11 5
-13 4 -17 -4 -12 -8 5 -10 1 -5 -10 4 -12 3 -15 -5 -10 -8 5 -10 1 -5 -10 5
-13 3 -15 -7 -9 -9 5 -11 4 -6 -4 4 -6 -2 -24 -13 -39 -17 -24 -25 -28 -56
-24 -29 3 -42 -1 -63 -21 -15 -14 -62 -41 -105 -60 -82 -38 -100 -60 -87 -107
4 -14 35 -81 69 -150 42 -86 61 -136 61 -162 0 -21 -3 -38 -7 -38 -5 0 -9 -26
-10 -58 -2 -31 -6 -58 -11 -60 -4 -1 -6 -20 -4 -42 2 -22 0 -40 -5 -40 -4 0
-7 -20 -5 -45 2 -25 1 -53 -3 -62 -8 -23 -8 -293 0 -316 4 -9 5 -37 3 -62 -2
-25 1 -45 5 -45 5 0 7 -18 5 -40 -2 -22 0 -41 4 -42 4 -2 8 -28 10 -58 2 -30
6 -57 9 -60 11 -9 39 -152 32 -163 -3 -5 -1 -7 4 -4 12 8 26 -50 16 -66 -4 -6
-1 -7 7 -2 10 6 12 3 8 -13 -4 -14 -2 -20 5 -15 6 4 8 -2 5 -15 -4 -14 -2 -20
5 -15 6 4 8 -2 5 -15 -4 -14 -2 -20 5 -15 6 4 8 -2 5 -15 -4 -12 -2 -20 3 -16
8 5 13 -12 12 -43 -1 -7 3 -10 8 -7 8 5 13 -13 12 -44 -1 -7 2 -11 5 -8 8 9
43 -75 35 -87 -3 -5 -2 -7 4 -4 13 8 36 -41 27 -55 -5 -7 -2 -8 6 -3 10 6 12
4 7 -9 -5 -11 -3 -15 5 -10 8 5 9 2 5 -10 -5 -11 -3 -15 5 -10 8 5 9 1 4 -12
-4 -10 -4 -15 0 -11 10 10 46 -52 38 -65 -4 -6 -3 -8 4 -4 11 6 28 -30 23 -49
-1 -5 1 -7 5 -2 10 10 85 -104 77 -117 -3 -6 -3 -8 2 -4 10 10 96 -102 88
-115 -3 -6 -1 -7 5 -3 13 8 55 -48 44 -59 -4 -5 -2 -5 4 -2 10 6 109 -98 109
-114 0 -9 15 -24 24 -24 16 0 120 -99 114 -109 -3 -6 -3 -8 2 -4 11 11 67 -31
59 -44 -4 -6 -3 -8 3 -5 13 8 125 -78 115 -88 -4 -5 -2 -5 4 -2 13 8 127 -67
117 -77 -5 -4 -3 -6 2 -5 19 5 55 -12 49 -23 -4 -7 -2 -8 4 -4 6 4 30 -5 52
-19 34 -22 49 -44 98 -143 l57 -117 50 -16 c75 -26 81 -24 119 35 19 30 39 57
46 61 14 9 140 -25 140 -37 0 -5 4 -7 9 -4 10 6 153 -23 161 -33 3 -3 30 -7
60 -9 30 -2 56 -6 58 -10 1 -4 20 -6 42 -4 22 2 40 0 40 -5 0 -4 20 -7 45 -5
25 2 53 1 62 -3 23 -8 293 -8 316 0 9 4 37 5 62 3 25 -2 45 1 45 5 0 5 18 7
40 5 22 -2 41 0 42 4 2 4 28 8 58 10 30 2 57 6 60 9 8 9 151 40 160 34 5 -3
10 -1 12 3 5 13 138 53 150 46 7 -5 8 -2 3 6 -6 10 -3 12 13 8 12 -4 20 -2 16
3 -5 8 12 13 43 12 7 -1 10 3 7 8 -5 8 13 13 44 12 7 -1 11 2 8 5 -9 8 75 43
87 35 5 -3 7 -2 4 4 -8 13 41 36 55 27 7 -5 8 -2 3 6 -6 10 -4 12 9 7 11 -5
15 -3 10 5 -5 8 -2 9 10 5 11 -5 15 -3 10 5 -5 8 -1 9 12 4 10 -4 15 -4 11 0
-10 10 52 46 65 38 6 -4 8 -3 4 4 -6 11 30 28 49 23 6 -1 7 1 2 5 -10 10 104
85 117 77 6 -3 8 -3 4 2 -10 10 102 96 115 88 6 -3 7 -1 3 5 -8 13 48 55 59
44 5 -4 5 -2 2 4 -6 11 91 101 104 97 8 -3 48 39 48 50 1 17 85 106 95 100 6
-3 8 -3 4 2 -11 11 31 67 44 59 6 -4 8 -3 5 3 -8 13 78 125 88 115 5 -4 5 -2
2 4 -8 13 67 127 77 117 4 -5 6 -3 5 2 -5 19 12 55 23 49 7 -4 8 -2 4 4 -8 13
28 75 38 65 4 -4 4 1 0 11 -5 13 -4 17 4 12 8 -5 10 -1 5 10 -4 12 -3 15 5 10
8 -5 10 -1 5 10 -5 13 -3 15 7 9 8 -5 11 -4 6 3 -9 14 14 63 27 55 6 -3 7 -1
4 4 -8 12 27 96 35 87 3 -3 6 1 5 8 -1 31 4 49 12 44 5 -3 9 0 8 7 -1 31 4 48
12 43 5 -4 7 4 3 16 -4 16 -2 19 8 13 8 -5 11 -4 6 3 -7 12 33 145 46 150 4 2
6 7 3 12 -6 9 25 152 34 160 3 3 7 30 9 60 2 30 6 56 10 58 4 1 6 20 4 42 -2
22 0 40 4 40 5 0 7 23 5 51 -1 28 1 55 6 60 5 5 6 36 2 72 -4 34 -10 100 -13
147 -6 90 -17 170 -30 215 -1 6 -8 30 -15 55 -22 80 -41 132 -56 153 -8 12
-15 28 -15 36 0 17 -111 211 -121 211 -4 0 -29 21 -57 48 -46 45 -87 78 -157
129 -53 38 -173 92 -240 108 -36 8 -105 17 -152 20 -48 2 -91 9 -96 14 -6 6
-4 27 7 58 9 26 19 59 22 72 3 13 11 35 18 50 76 151 81 354 13 561 -6 19 -17
44 -24 55 -7 11 -13 26 -13 35 0 23 -127 238 -160 270 -15 15 -46 41 -67 56
-21 16 -40 31 -43 35 -19 21 -176 106 -210 114 -8 2 -42 11 -75 20 -51 14
-326 30 -337 20z"/>
<path d="M4397 3489 c7 -7 15 -10 18 -7 3 3 -2 9 -12 12 -14 6 -15 5 -6 -5z"/>
<path d="M4781 3004 c0 -11 3 -14 6 -6 3 7 2 16 -1 19 -3 4 -6 -2 -5 -13z"/>
</g>
</svg>
